<svg width="3102" height="3138" viewBox="0 0 3102 3138" fill="none" xmlns="http://www.w3.org/2000/svg">
<path d="M3102 1345.68L2334.49 1569L3102 1792.23L2302.72 1789.97L2976.34 2220.8L2210.14 1993.15L2735.26 2596.49L2064.08 2161.89L2398.21 2888.89L1876.48 2282.64L1992.46 3074.38L1662.47 2345.5L1551 3138L1439.53 2345.5L1109.54 3074.38L1225.52 2282.64L703.881 2888.89L1037.92 2161.89L366.744 2596.49L891.858 1993.15L125.663 2220.8L799.279 1789.97L0 1792.23L767.511 1569L0 1345.68L799.279 1347.94L125.663 917.195L891.858 1144.85L366.744 541.508L1037.92 976.108L703.881 249.109L1225.52 855.365L1109.54 63.5242L1439.53 792.499L1551 0L1662.47 792.499L1992.46 63.5242L1876.48 855.365L2398.21 249.109L2064.08 976.108L2735.26 541.508L2210.14 1144.85L2976.34 917.195L2302.72 1347.94L3102 1345.68Z" fill="#FFEC3D"/>
<path d="M1002.94 1334.15C1010.99 1332 1018.09 1333.37 1024.24 1338.28C1030.62 1342.78 1034.98 1349.38 1037.31 1358.08C1039.81 1367.41 1038.66 1376 1033.86 1383.85C1028.97 1391.37 1021.7 1396.42 1012.04 1399.01C1001.09 1401.94 990.998 1400.33 981.758 1394.18C972.517 1388.03 966.172 1378.52 962.721 1365.64C957.89 1347.61 959.285 1329.63 966.908 1311.72C974.53 1293.8 988.391 1276.63 1008.49 1260.2L1011.73 1272.27C999.842 1282.01 990.408 1293.17 983.423 1305.74C976.352 1317.98 974.111 1328.94 976.699 1338.6C978.424 1345.04 981.058 1347.78 984.6 1346.83C985.244 1346.66 986.005 1346.28 986.885 1345.7C987.678 1344.8 988.515 1344.06 989.395 1343.48C993.275 1338.64 997.791 1335.53 1002.94 1334.15ZM1103.4 1307.24C1111.45 1305.08 1118.55 1306.46 1124.69 1311.37C1131.08 1315.87 1135.43 1322.46 1137.76 1331.16C1140.26 1340.5 1139.11 1349.09 1134.31 1356.93C1129.43 1364.45 1122.15 1369.5 1112.5 1372.09C1101.55 1375.03 1091.45 1373.42 1082.21 1367.27C1072.97 1361.11 1066.63 1351.6 1063.18 1338.72C1058.35 1320.69 1059.74 1302.72 1067.36 1284.8C1074.99 1266.88 1088.85 1249.71 1108.95 1233.28L1112.18 1245.35C1100.3 1255.1 1090.86 1266.25 1083.88 1278.82C1076.81 1291.07 1074.57 1302.02 1077.16 1311.68C1078.88 1318.12 1081.51 1320.87 1085.06 1319.92C1085.7 1319.74 1086.46 1319.37 1087.34 1318.79C1088.13 1317.88 1088.97 1317.14 1089.85 1316.56C1093.73 1311.73 1098.25 1308.62 1103.4 1307.24ZM1209.14 1272.17C1206.3 1261.55 1202.85 1253.84 1198.81 1249.06C1194.77 1244.28 1188.74 1241.75 1180.73 1241.48C1172.96 1240.8 1161.5 1242.49 1146.37 1246.55L1143.14 1234.47L1200.13 1219.2L1257.11 1203.93L1314.1 1188.66L1317.34 1200.74C1302.53 1204.7 1291.77 1208.97 1285.05 1213.53C1278.57 1217.68 1274.62 1222.88 1273.18 1229.13C1272.08 1235.3 1272.94 1243.69 1275.79 1254.31L1351.63 1537.33C1354.47 1547.96 1357.92 1555.66 1361.96 1560.44C1366.24 1564.82 1372.26 1567.35 1380.04 1568.02C1388.13 1568.62 1399.59 1566.93 1414.4 1562.96L1417.63 1575.03L1360.64 1590.3L1303.65 1605.57L1246.66 1620.84L1243.43 1608.77C1258.56 1604.71 1269.32 1600.45 1275.72 1595.98C1282.43 1591.42 1286.39 1586.21 1287.58 1580.37C1288.69 1574.21 1287.82 1565.81 1284.98 1555.19L1209.14 1272.17ZM1541.71 1427.9C1548.64 1455.04 1552.73 1477.41 1554 1495.01C1555.18 1512.29 1552.59 1526.45 1546.23 1537.47C1539.78 1548.17 1528.66 1555.63 1512.88 1559.86C1491.63 1565.56 1473.48 1562.83 1458.41 1551.68C1443.26 1540.21 1431.46 1518.7 1423 1487.15L1381.85 1333.57L1345.14 1343.4L1339.32 1321.67C1354.93 1316.8 1367.11 1310.77 1375.89 1303.59C1384.9 1296 1391.01 1286.6 1394.21 1275.38C1397.42 1264.17 1397.75 1249.93 1395.19 1232.67L1412.1 1228.14L1430.6 1297.21L1485.18 1282.59L1491 1304.32L1436.42 1318.94L1473.69 1458.04C1478.27 1475.1 1482.58 1488.61 1486.63 1498.57C1490.59 1508.21 1495.28 1515.4 1500.69 1520.16C1506.43 1524.84 1513.49 1526.05 1521.86 1523.81C1528.94 1521.91 1533.84 1517.67 1536.56 1511.07C1539.52 1504.07 1540.32 1494.19 1538.98 1481.44C1537.95 1468.6 1534.84 1451.83 1529.64 1431.14L1541.71 1427.9ZM1521.49 1190.03C1513.44 1192.19 1506.22 1191.02 1499.84 1186.52C1493.69 1181.61 1489.45 1174.81 1487.12 1166.11C1484.62 1156.78 1485.81 1148.35 1490.7 1140.82C1495.5 1132.98 1502.73 1127.77 1512.39 1125.18C1523.34 1122.24 1533.43 1123.85 1542.67 1130.01C1551.91 1136.16 1558.26 1145.67 1561.71 1158.55C1566.54 1176.58 1565.14 1194.56 1557.52 1212.47C1549.9 1230.39 1536.04 1247.56 1515.94 1263.99L1512.7 1251.92C1524.59 1242.17 1534.06 1231.18 1541.14 1218.93C1548.12 1206.36 1550.32 1195.25 1547.73 1185.59C1546.01 1179.15 1543.37 1176.41 1539.83 1177.35C1539.19 1177.53 1538.47 1178.06 1537.67 1178.97C1536.79 1179.55 1535.91 1180.13 1535.04 1180.71C1531.15 1185.55 1526.64 1188.65 1521.49 1190.03ZM1636.61 1416.45L1648.69 1413.22C1658.93 1436.01 1672.53 1453.24 1689.46 1464.93C1706.39 1476.61 1724.52 1479.86 1743.84 1474.68C1753.82 1472.01 1760.58 1467.61 1764.11 1461.49C1767.88 1454.96 1768.48 1446.86 1765.89 1437.2C1763.9 1429.79 1760.12 1423.39 1754.53 1417.99C1749.17 1412.17 1742.21 1406.79 1733.64 1401.84C1724.98 1396.57 1713.88 1390.57 1700.35 1383.85L1692.77 1380.7C1690.82 1379.84 1688.86 1378.99 1686.91 1378.13C1684.95 1377.27 1683.16 1376.37 1681.53 1375.43C1666.44 1368.08 1654.37 1361.66 1645.3 1356.15C1636.23 1350.64 1628.24 1343.98 1621.31 1336.18C1614.63 1327.96 1609.77 1318.22 1606.75 1306.95C1601.66 1287.95 1603.73 1271.18 1612.94 1256.63C1622.39 1241.68 1637.42 1231.44 1658.03 1225.92C1668.65 1223.07 1677.73 1222.19 1685.27 1223.28C1693.05 1223.95 1701.04 1225.44 1709.24 1227.72C1715.26 1229.56 1719.23 1230.22 1721.16 1229.71C1723.74 1229.02 1725.09 1227.62 1725.21 1225.51C1725.25 1223.09 1724.54 1219.14 1723.07 1213.66L1735.15 1210.43L1756.76 1291.08L1744.68 1294.32C1736.14 1276.59 1724.64 1263.28 1710.17 1254.39C1695.71 1245.5 1680.76 1243.12 1665.3 1247.26C1656.61 1249.59 1650.61 1253.61 1647.31 1259.33C1644.33 1264.96 1643.66 1270.83 1645.3 1276.95C1647.37 1284.68 1651.73 1291.27 1658.37 1296.74C1665.33 1302.12 1676.31 1308.33 1691.31 1315.35L1709.16 1324.03L1721.15 1330.13C1739.33 1338.72 1753.44 1346.32 1763.5 1352.95C1773.88 1359.48 1782.5 1367.18 1789.36 1376.04C1796.13 1384.58 1801.2 1395.13 1804.57 1407.68C1810.61 1430.22 1808.3 1449.3 1797.65 1464.93C1787.23 1480.14 1771.88 1490.47 1751.59 1495.9C1739.68 1499.09 1729.31 1500.32 1720.48 1499.58C1711.75 1499.16 1702.63 1497.98 1693.14 1496.03C1686.16 1494.45 1681.38 1494.01 1678.8 1494.7C1675.9 1495.48 1674.11 1497.16 1673.43 1499.76C1673.07 1502.27 1673.58 1506.11 1674.96 1511.26L1662.88 1514.49L1636.61 1416.45ZM1268.87 1915.12C1275.8 1942.25 1279.89 1964.62 1281.16 1982.23C1282.34 1999.51 1279.75 2013.67 1273.38 2024.69C1266.93 2035.39 1255.82 2042.85 1240.04 2047.08C1218.79 2052.77 1200.63 2050.05 1185.57 2038.9C1170.42 2027.43 1158.61 2005.92 1150.16 1974.37L1109.01 1820.78L1072.3 1830.62L1066.48 1808.89C1082.08 1804.01 1094.27 1797.99 1103.04 1790.81C1112.05 1783.22 1118.16 1773.81 1121.37 1762.6C1124.58 1751.39 1124.9 1737.15 1122.35 1719.89L1139.25 1715.36L1157.76 1784.43L1212.33 1769.8L1218.16 1791.54L1163.58 1806.16L1200.85 1945.25C1205.42 1962.32 1209.73 1975.83 1213.78 1985.79C1217.74 1995.42 1222.43 2002.62 1227.85 2007.38C1233.59 2012.06 1240.64 2013.27 1249.02 2011.03C1256.1 2009.13 1261 2004.88 1263.72 1998.29C1266.67 1991.29 1267.48 1981.41 1266.13 1968.66C1265.11 1955.82 1262 1939.05 1256.8 1918.36L1268.87 1915.12ZM1441.96 1992.98C1418.78 1999.19 1396.9 1998.67 1376.32 1991.41C1355.74 1984.16 1337.86 1971.52 1322.68 1953.5C1307.74 1935.08 1296.73 1912.66 1289.65 1886.26C1282.58 1859.86 1280.91 1834.94 1284.64 1811.51C1288.69 1787.99 1297.86 1768.11 1312.14 1751.86C1326.33 1735.29 1345.02 1723.9 1368.2 1717.69C1391.71 1711.39 1413.75 1711.87 1434.33 1719.12C1454.82 1726.05 1472.54 1738.73 1487.48 1757.16C1502.43 1775.59 1513.44 1798 1520.51 1824.4C1527.59 1850.8 1529.26 1875.72 1525.53 1899.15C1521.71 1922.26 1512.71 1942.1 1498.51 1958.67C1484.32 1975.24 1465.47 1986.68 1441.96 1992.98ZM1446.15 1968.04C1457.81 1963.88 1465.81 1956.39 1470.15 1945.56C1474.82 1934.65 1476 1920.36 1473.68 1902.69C1471.68 1884.94 1465.93 1862.84 1456.43 1836.4C1447.02 1810.28 1437.37 1789.74 1427.5 1774.78C1417.63 1759.83 1407.47 1749.61 1397.03 1744.13C1386.58 1738.64 1375.58 1738.14 1364.01 1742.62C1352.68 1746.69 1344.68 1754.18 1340.01 1765.1C1335.26 1775.69 1334.08 1789.98 1336.49 1807.97C1338.81 1825.64 1344.67 1847.53 1354.09 1873.65C1363.59 1900.1 1373.11 1920.84 1382.67 1935.88C1392.54 1950.83 1402.7 1961.05 1413.14 1966.53C1423.49 1971.7 1434.5 1972.2 1446.15 1968.04ZM1603 1715.85C1608.95 1694.24 1617.39 1676.8 1628.32 1663.52C1639.26 1650.23 1652.77 1641.44 1668.87 1637.12C1695.27 1630.05 1717.98 1636.22 1736.98 1655.62C1756.22 1674.63 1770.67 1702.16 1780.34 1738.22C1788.01 1766.87 1790.66 1794.12 1788.26 1819.95C1785.78 1845.46 1778.78 1867.01 1767.27 1884.59C1756 1901.76 1741.67 1912.67 1724.28 1917.33C1710.76 1920.95 1697.87 1921.13 1685.6 1917.86C1673.66 1914.5 1661.98 1907.62 1650.57 1897.22L1649.6 1897.48L1601.07 1716.37L1603 1715.85ZM1630.84 1827.45C1637.91 1853.85 1648.35 1873.49 1662.15 1886.35C1675.86 1898.9 1690.29 1903.14 1705.42 1899.09C1722.48 1894.52 1731.63 1880.33 1732.84 1856.54C1734.29 1832.34 1730.49 1803.34 1721.43 1769.53C1711.68 1733.15 1701.35 1707.45 1690.42 1692.43C1679.41 1677.09 1666.66 1671.36 1652.17 1675.24C1641.54 1678.09 1632.2 1685.08 1624.14 1696.21C1616.08 1707.34 1610.12 1720.5 1606.25 1735.69L1630.84 1827.45ZM1671.6 1979.58C1674.62 1990.85 1677.63 1998.85 1680.62 2003.57C1684.01 2008.52 1688.43 2011.48 1693.86 2012.44C1699.62 2013.32 1707.49 2012.42 1717.47 2009.74L1720.7 2021.81L1680.62 2032.56L1635.7 2044.59L1595.62 2055.33L1592.38 2043.26C1602.68 2040.5 1609.95 2037.34 1614.17 2033.79C1618.4 2030.25 1620.59 2025.52 1620.73 2019.62C1621.28 2013.95 1620.05 2005.48 1617.03 1994.21L1551.54 1749.83L1550.64 1746.45C1547.71 1735.5 1545.24 1728.22 1543.24 1724.62C1541.47 1720.61 1538.82 1719.07 1535.28 1720.02C1531.65 1720.65 1525.89 1724.27 1517.99 1730.87L1509.83 1721.66L1541.4 1694.57L1578.56 1661.32L1587.74 1666.62L1671.6 1979.58ZM1823.15 1780.58L1835.22 1777.35C1845.47 1800.14 1859.06 1817.37 1876 1829.05C1892.93 1840.74 1911.06 1843.99 1930.37 1838.81C1940.36 1836.14 1947.11 1831.74 1950.65 1825.62C1954.42 1819.08 1955.01 1810.99 1952.42 1801.33C1950.44 1793.92 1946.65 1787.52 1941.06 1782.11C1935.71 1776.3 1928.75 1770.92 1920.17 1765.97C1911.51 1760.7 1900.42 1754.7 1886.88 1747.97L1879.31 1744.83C1877.35 1743.97 1875.4 1743.11 1873.44 1742.26C1871.49 1741.4 1869.7 1740.5 1868.06 1739.56C1852.98 1732.21 1840.91 1725.78 1831.84 1720.28C1822.77 1714.77 1814.77 1708.11 1807.85 1700.3C1801.16 1692.09 1796.31 1682.35 1793.29 1671.08C1788.2 1652.08 1790.26 1635.31 1799.48 1620.76C1808.93 1605.81 1823.96 1595.57 1844.56 1590.05C1855.19 1587.2 1864.27 1586.32 1871.81 1587.4C1879.58 1588.08 1887.57 1589.56 1895.78 1591.85C1901.79 1593.69 1905.77 1594.35 1907.7 1593.83C1910.27 1593.14 1911.62 1591.75 1911.75 1589.64C1911.79 1587.22 1911.08 1583.27 1909.61 1577.79L1921.68 1574.56L1943.3 1655.21L1931.22 1658.45C1922.68 1640.72 1911.17 1627.41 1896.71 1618.52C1882.25 1609.63 1867.29 1607.25 1851.84 1611.39C1843.14 1613.72 1837.15 1617.74 1833.85 1623.46C1830.87 1629.09 1830.2 1634.96 1831.84 1641.08C1833.91 1648.81 1838.27 1655.4 1844.91 1660.87C1851.87 1666.25 1862.85 1672.45 1877.85 1679.48L1895.7 1688.15L1907.69 1694.26C1925.86 1702.85 1939.98 1710.45 1950.04 1717.08C1960.42 1723.61 1969.03 1731.31 1975.9 1740.17C1982.67 1748.71 1987.74 1759.25 1991.1 1771.81C1997.14 1794.35 1994.84 1813.43 1984.18 1829.05C1973.77 1844.27 1958.41 1854.59 1938.13 1860.03C1926.22 1863.22 1915.85 1864.45 1907.02 1863.71C1898.28 1863.29 1889.17 1862.11 1879.67 1860.16C1872.69 1858.58 1867.91 1858.14 1865.34 1858.83C1862.44 1859.6 1860.65 1861.29 1859.97 1863.89C1859.6 1866.4 1860.11 1870.23 1861.49 1875.39L1849.42 1878.62L1823.15 1780.58ZM1953.08 1467.28C1949.11 1452.47 1948.79 1440.99 1952.13 1432.85C1955.71 1424.3 1962.33 1418.73 1971.99 1416.14C1981.32 1413.64 1989.52 1415.24 1996.57 1420.94C2003.85 1426.24 2009.48 1436.29 2013.45 1451.1C2016.38 1462.05 2018.97 1474.29 2021.22 1487.84C2023.47 1501.39 2025.69 1518.05 2027.88 1537.82C2030.95 1565.99 2034.78 1594.46 2039.39 1623.25C2044 1652.04 2050.37 1682.26 2058.5 1713.9L2046.43 1717.13C2037.39 1684.7 2027.84 1655.51 2017.78 1629.56C2008.05 1603.53 1996.84 1576.51 1984.16 1548.5C1976.52 1531.57 1970.12 1516.72 1964.97 1503.95C1960.06 1490.77 1956.1 1478.55 1953.08 1467.28ZM2080.69 1821.83C2072 1824.16 2063.73 1822.92 2055.89 1818.12C2048.13 1813.64 2043.13 1807.22 2040.89 1798.85C2038.47 1789.83 2039.55 1781.61 2044.11 1774.17C2048.59 1766.42 2055.17 1761.37 2063.87 1759.04C2072.56 1756.71 2080.79 1757.79 2088.54 1762.27C2096.21 1766.42 2101.26 1773.01 2103.67 1782.03C2105.91 1790.4 2104.8 1798.46 2100.32 1806.22C2095.93 1814.3 2089.38 1819.5 2080.69 1821.83ZM2196.17 1423.36C2188.12 1425.52 2180.91 1424.35 2174.52 1419.85C2168.38 1414.94 2164.14 1408.14 2161.81 1399.44C2159.31 1390.1 2160.5 1381.68 2165.39 1374.15C2170.19 1366.31 2177.42 1361.1 2187.08 1358.51C2198.02 1355.57 2208.12 1357.18 2217.36 1363.33C2226.6 1369.49 2232.94 1379 2236.39 1391.88C2241.22 1409.91 2239.83 1427.88 2232.21 1445.8C2224.58 1463.72 2210.72 1480.89 2190.62 1497.32L2187.39 1485.25C2199.27 1475.5 2208.75 1464.51 2215.82 1452.26C2222.8 1439.69 2225 1428.58 2222.41 1418.92C2220.69 1412.48 2218.06 1409.73 2214.51 1410.68C2213.87 1410.86 2213.15 1411.39 2212.36 1412.3C2211.48 1412.88 2210.6 1413.46 2209.72 1414.04C2205.84 1418.87 2201.32 1421.98 2196.17 1423.36ZM2095.71 1450.28C2087.67 1452.44 2080.45 1451.27 2074.07 1446.76C2067.92 1441.85 2063.68 1435.05 2061.35 1426.36C2058.85 1417.02 2060.04 1408.59 2064.93 1401.07C2069.73 1393.23 2076.96 1388.01 2086.62 1385.42C2097.57 1382.49 2107.66 1384.1 2116.9 1390.25C2126.14 1396.4 2132.49 1405.92 2135.94 1418.8C2140.77 1436.83 2139.37 1454.8 2131.75 1472.72C2124.13 1490.64 2110.27 1507.81 2090.17 1524.24L2086.93 1512.16C2098.82 1502.42 2108.29 1491.43 2115.36 1479.18C2122.35 1466.61 2124.55 1455.5 2121.96 1445.84C2120.23 1439.4 2117.6 1436.65 2114.06 1437.6C2113.41 1437.77 2112.7 1438.31 2111.9 1439.21C2111.02 1439.79 2110.14 1440.38 2109.26 1440.96C2105.38 1445.79 2100.87 1448.9 2095.71 1450.28Z" fill="black"/>
</svg>
